<?xml version="1.0" encoding="utf-8"?>
<!-- Generator: Adobe Illustrator 19.2.1, SVG Export Plug-In . SVG Version: 6.00 Build 0)  -->
<svg version="1.1" id="Layer_1" xmlns="http://www.w3.org/2000/svg" xmlns:xlink="http://www.w3.org/1999/xlink" x="0px" y="0px"
	 viewBox="0 0 600 600" style="enable-background:new 0 0 600 600;" xml:space="preserve">
<style type="text/css">
	.st0{fill:#049CFF;}
	.st1{fill:#D7493D;}
	.st2{clip-path:url(#SVGID_2_);fill:#D7493D;}
	.st3{fill:#FFFFFF;}
</style>
<g>
	<path class="st0" d="M452.7,378H57.4C25.7,378,0,352.3,0,320.6V57.4C0,25.7,25.7,0,57.4,0h395.3c31.7,0,57.4,25.7,57.4,57.4v263.1
		C510.2,352.3,484.4,378,452.7,378z"/>
	<rect x="97.1" y="125.6" class="st1" width="481.8" height="329.2"/>
	<g>
		<defs>
			<rect id="SVGID_1_" x="400" y="402.5" width="143.9" height="197.5"/>
		</defs>
		<clipPath id="SVGID_2_">
			<use xlink:href="#SVGID_1_"  style="overflow:visible;"/>
		</clipPath>
		<polygon class="st2" points="533.8,592.7 406.9,454.3 618,438.1 		"/>
	</g>
	<path class="st3" d="M505.3,200.2H170.8c-5.9,0-10.6,4.5-10.6,10.2s4.7,10.2,10.6,10.2h334.4c5.9,0,10.6-4.5,10.6-10.2
		C515.8,204.9,511,200.2,505.3,200.2z"/>
	<path class="st3" d="M505.3,278.3H170.8c-5.9,0-10.6,4.5-10.6,10.2c0,5.7,4.7,10.2,10.6,10.2h334.4c5.9,0,10.6-4.5,10.6-10.2
		C515.8,282.8,511,278.3,505.3,278.3z"/>
	<path class="st3" d="M505.3,356.3H170.8c-5.9,0-10.6,4.5-10.6,10.2c0,5.7,4.7,10.2,10.6,10.2h334.4c5.9,0,10.6-4.5,10.6-10.2
		C515.8,360.8,511,356.3,505.3,356.3z"/>
	<path class="st1" d="M538.7,111H137.3c-33.8,0-61.3,26.6-61.3,59.4v244.5c0,32.8,27.5,59.4,61.3,59.4h281.3c3,0,5.8,1.3,7.7,3.6
		l90.9,111.4c3.6,4.4,8.8,6.7,14.3,6.7c2,0,4.1-0.3,6.1-1c7.4-2.6,12.4-9.1,12.4-16.7v-105c28.4-5.1,50.1-29.5,50.1-58.3V170.4
		C600,137.6,572.5,111,538.7,111L538.7,111z M578.9,414.9c0,21.3-17.9,38.7-39.7,38.9c-5.8,0.1-10.4,4.6-10.4,10.2v106.6
		l-85.9-105.5c-5.9-7.2-14.7-11.4-24.2-11.4H137.3c-22.2,0-40.2-17.4-40.2-38.9V170.4c0-21.5,18-38.9,40.2-38.9h401.3
		c22.2,0,40.2,17.4,40.2,38.9v244.5H578.9z"/>
</g>
</svg>
